<svg width="194" height="194" viewBox="0 0 194 194" fill="none" xmlns="http://www.w3.org/2000/svg">
<path d="M130.344 63.6562H63.6562V130.344H130.344V63.6562Z" fill="#FCE400"/>
<path d="M83.3594 114.43H110.641C112.733 114.43 114.43 112.733 114.43 110.641V83.3594C114.43 81.2671 112.733 79.5703 110.641 79.5703H83.3594C81.2667 79.5703 79.5703 81.2671 79.5703 83.3594V110.641C79.5703 112.733 81.2667 114.43 83.3594 114.43ZM87.1484 87.1484H106.852V106.852H87.1484V87.1484Z" fill="#41403A"/>
<path d="M181.117 20.4609C174.013 20.4609 168.234 26.24 168.234 33.3438C168.234 40.4475 174.013 46.2266 181.117 46.2266C188.221 46.2266 194 40.4475 194 33.3438C194 26.24 188.221 20.4609 181.117 20.4609ZM181.117 38.6484C178.192 38.6484 175.812 36.2689 175.812 33.3438C175.812 30.4186 178.192 28.0391 181.117 28.0391C184.042 28.0391 186.422 30.4186 186.422 33.3438C186.422 36.2689 184.042 38.6484 181.117 38.6484Z" fill="#41403A"/>
<path d="M158.959 37.1215C159.955 37.1215 160.933 36.716 161.638 36.0113C162.342 35.3065 162.748 34.3289 162.748 33.3324C162.748 32.3359 162.342 31.3583 161.638 30.6535C160.933 29.9491 159.955 29.5433 158.959 29.5433C157.958 29.5433 156.981 29.9488 156.276 30.6535C155.571 31.3583 155.17 32.3359 155.17 33.3324C155.17 34.3289 155.571 35.3065 156.276 36.0113C156.985 36.7157 157.958 37.1215 158.959 37.1215Z" fill="#41403A"/>
<path d="M169.762 84.1172C163.976 84.1172 159.07 87.9506 157.448 93.2109H134.133V63.6562C134.133 61.5639 132.436 59.8672 130.344 59.8672H124.281V37.1214H145.508C147.601 37.1214 149.297 35.4247 149.297 33.3324C149.297 31.2401 147.601 29.5433 145.508 29.5433H120.492C118.4 29.5433 116.703 31.2401 116.703 33.3324V59.8672H100.789V36.5519C106.049 34.9299 109.883 30.0242 109.883 24.2386C109.883 17.1349 104.104 11.3558 97 11.3558C89.8963 11.3558 84.1172 17.1349 84.1172 24.2386C84.1172 30.0242 87.951 34.9302 93.211 36.5519V59.8672H63.6563C61.5636 59.8672 59.8672 61.5639 59.8672 63.6562V69.7188H37.1211V25.1995C42.3871 23.5812 46.2266 18.6725 46.2266 12.8828C46.2266 5.77908 40.4475 0 33.3438 0C26.24 0 20.461 5.77908 20.461 12.8828C20.461 18.6642 24.2891 23.5672 29.543 25.1927V73.5078C29.543 75.6001 31.2393 77.2969 33.332 77.2969H59.8672V93.2109H36.5516C34.9295 87.9506 30.0234 84.1172 24.2383 84.1172C17.1345 84.1172 11.3555 89.8963 11.3555 97C11.3555 104.104 17.1345 109.883 24.2383 109.883C30.0238 109.883 34.9299 106.049 36.5516 100.789H59.8672V130.344C59.8672 132.436 61.5636 134.133 63.6563 134.133H69.7188V156.879H48.4917C46.399 156.879 44.7026 158.575 44.7026 160.668C44.7026 162.76 46.399 164.457 48.4917 164.457H73.5078C75.6005 164.457 77.2969 162.76 77.2969 160.668V134.133H93.211V157.448C87.951 159.07 84.1172 163.976 84.1172 169.761C84.1172 176.865 89.8963 182.644 97 182.644C104.104 182.644 109.883 176.865 109.883 169.761C109.883 163.976 106.049 159.07 100.789 157.448V134.133H130.344C132.436 134.133 134.133 132.436 134.133 130.344V124.281H156.879V168.8C151.613 170.419 147.773 175.327 147.773 181.117C147.773 188.221 153.553 194 160.656 194C167.76 194 173.539 188.221 173.539 181.117C173.539 175.336 169.711 170.433 164.457 168.807V120.492C164.457 118.4 162.761 116.703 160.668 116.703H134.133V100.789H157.448C159.071 106.049 163.977 109.883 169.762 109.883C176.866 109.883 182.645 104.104 182.645 97C182.645 89.8963 176.865 84.1172 169.762 84.1172ZM97 18.9339C99.9252 18.9339 102.305 21.3135 102.305 24.2386C102.305 27.1638 99.9252 29.5433 97 29.5433C94.0749 29.5433 91.6953 27.1638 91.6953 24.2386C91.6953 21.3135 94.0749 18.9339 97 18.9339ZM33.3438 7.57812C36.2689 7.57812 38.6485 9.95766 38.6485 12.8828C38.6485 15.808 36.2689 18.1875 33.3438 18.1875C30.4186 18.1875 28.0391 15.808 28.0391 12.8828C28.0391 9.95766 30.4186 7.57812 33.3438 7.57812ZM24.2383 102.305C21.3131 102.305 18.9336 99.9252 18.9336 97C18.9336 94.0748 21.3131 91.6953 24.2383 91.6953C27.1634 91.6953 29.543 94.0748 29.543 97C29.543 99.9252 27.1634 102.305 24.2383 102.305ZM97 175.066C94.0749 175.066 91.6953 172.687 91.6953 169.761C91.6953 166.836 94.0749 164.457 97 164.457C99.9252 164.457 102.305 166.836 102.305 169.761C102.305 172.687 99.9252 175.066 97 175.066ZM160.656 186.422C157.731 186.422 155.352 184.042 155.352 181.117C155.352 178.192 157.731 175.812 160.656 175.812C163.581 175.812 165.961 178.192 165.961 181.117C165.961 184.042 163.581 186.422 160.656 186.422ZM126.555 126.555H67.4453V67.4453H126.555V126.555ZM169.762 102.305C166.837 102.305 164.457 99.9252 164.457 97C164.457 94.0748 166.837 91.6953 169.762 91.6953C172.687 91.6953 175.066 94.0748 175.066 97C175.066 99.9252 172.687 102.305 169.762 102.305Z" fill="#41403A"/>
<path d="M12.8828 147.773C5.77908 147.773 0 153.553 0 160.656C0 167.76 5.77908 173.539 12.8828 173.539C19.9865 173.539 25.7656 167.76 25.7656 160.656C25.7656 153.553 19.9865 147.773 12.8828 147.773ZM12.8828 165.961C9.95766 165.961 7.57812 163.581 7.57812 160.656C7.57812 157.731 9.95766 155.352 12.8828 155.352C15.808 155.352 18.1875 157.731 18.1875 160.656C18.1875 163.581 15.808 165.961 12.8828 165.961Z" fill="#41403A"/>
<path d="M35.0488 156.879C34.0523 156.879 33.0747 157.284 32.37 157.989C31.6652 158.693 31.2598 159.671 31.2598 160.668C31.2598 161.664 31.6652 162.642 32.37 163.346C33.0747 164.051 34.0523 164.457 35.0488 164.457C36.0454 164.457 37.0229 164.051 37.7277 163.346C38.4325 162.642 38.8379 161.664 38.8379 160.668C38.8379 159.671 38.4325 158.693 37.7277 157.989C37.0229 157.284 36.0454 156.879 35.0488 156.879Z" fill="#41403A"/>
</svg>
