<svg width="158" height="188" viewBox="0 0 158 188" fill="none" xmlns="http://www.w3.org/2000/svg">
<path d="M39.5938 63.6875H42.625C42.625 58.6647 46.696 54.5938 51.7188 54.5938H54.75V45.5H39.5938V63.6875Z" fill="#FCE400"/>
<path d="M97.1875 54.5938H100.219C105.242 54.5938 109.312 58.6647 109.312 63.6875H112.344V45.5H97.1875V54.5938Z" fill="#FCE400"/>
<path d="M66.875 4.33259V33.375H85.0625V4.33259C82.1707 3.51112 79.1243 3.0625 75.9688 3.0625C72.8132 3.0625 69.7668 3.51112 66.875 4.33259Z" fill="#FCE400"/>
<path d="M148.719 57.625H142.656C137.643 57.625 133.562 61.7051 133.562 66.7188V67.2371C130.034 68.489 127.5 71.8597 127.5 75.8125V79.3621C127.5 81.7901 128.449 84.0757 130.164 85.7944L133.411 89.0409L130.143 116.816C121.28 102.509 106.972 92.1661 90.4218 88.3679L89.0668 84.3C93.4894 83.0784 97.1178 79.9532 98.9335 75.8125H100.219C106.906 75.8125 112.344 70.3744 112.344 63.6875C112.344 57.0006 106.906 51.5625 100.219 51.5625V48.5312H112.344C115.687 48.5312 118.406 45.8122 118.406 42.4688V36.4062C118.406 33.0628 115.687 30.3438 112.344 30.3438H111.816C108.918 12.8837 93.9835 0.03125 75.9688 0.03125C57.954 0.03125 43.0191 12.8837 40.1212 30.3438H39.5938C36.2503 30.3438 33.5312 33.0628 33.5312 36.4062V42.4688C33.5312 45.8122 36.2503 48.5312 39.5938 48.5312H51.7187V51.5625C45.0318 51.5625 39.5938 57.0006 39.5938 63.6875C39.5938 70.3744 45.0318 75.8125 51.7187 75.8125H53.004C54.8227 79.9532 58.4512 83.0814 62.8707 84.3L61.5127 88.371C54.6591 89.9412 48.1267 92.8451 42.3522 96.8282L36.3806 78.286C36.3624 78.186 36.3655 78.0859 36.3442 77.9859C34.8226 71.5991 25.7864 68.2586 15.7227 70.3926C9.47525 71.7173 4.25544 74.8668 1.75769 78.8104C0.329969 81.0657 -0.136844 83.4664 0.408781 85.758C0.721 87.0736 1.36666 88.2527 2.26087 89.2864L23.031 120.396C19.9846 127.398 18.375 134.81 18.375 142.5C18.375 155.425 25.7834 166.632 36.5625 172.164V175.844C36.5625 182.531 42.0006 187.969 48.6875 187.969H57.7812H66.875H115.375V148.281C119.789 154.128 126.645 157.656 134.172 157.656C147.206 157.656 157.812 147.05 157.812 134.019V66.7188C157.812 61.7051 153.732 57.625 148.719 57.625ZM133.562 75.8125C133.562 74.1423 134.921 72.7812 136.594 72.7812H139.625V66.7188C139.625 65.0485 140.983 63.6875 142.656 63.6875H148.719C150.392 63.6875 151.75 65.0485 151.75 66.7188V84.9062H137.849L134.451 81.5082C133.878 80.9353 133.562 80.1714 133.562 79.3621V75.8125ZM85.0625 175.844V181.906H77.3146C78.3574 180.115 79 178.063 79 175.844H85.0625ZM88.0938 169.781H69.9062V155.88L73.3043 152.482C73.8711 151.918 74.6502 151.594 75.4474 151.594H79C80.6732 151.594 82.0312 152.955 82.0312 154.625V157.656H88.0938C89.767 157.656 91.125 159.017 91.125 160.688V166.75C91.125 168.42 89.767 169.781 88.0938 169.781ZM82.877 84.9062L84.6957 90.3625L75.9688 101.272L67.2387 90.3595L69.0575 84.9032H82.877V84.9062ZM67.2691 100.102C67.1357 100.099 67.0084 100.062 66.875 100.062H48.6875C48.6572 100.062 48.6299 100.072 48.5996 100.072C52.9707 97.4708 57.7237 95.5278 62.6858 94.3728L67.2691 100.102ZM48.6875 106.125H56.3778C55.3411 107.91 54.75 109.981 54.75 112.188V115.219H60.8125V112.188C60.8125 108.844 63.5315 106.125 66.875 106.125C70.2185 106.125 72.9375 108.844 72.9375 112.188C72.9375 115.531 70.2185 118.25 66.875 118.25H48.6875C45.344 118.25 42.625 115.531 42.625 112.188C42.625 108.844 45.344 106.125 48.6875 106.125ZM42.625 122.627C44.4165 123.67 46.4686 124.312 48.6875 124.312H66.875C69.0939 124.312 71.146 123.67 72.9375 122.627V145.925C71.4764 146.347 70.1215 147.089 69.0181 148.196L65.6201 151.594H54.75C50.5062 151.594 46.3565 150.581 42.625 148.729V122.627ZM85.0625 147.88C83.4499 146.432 81.3341 145.531 79 145.531V112.188C79 110.757 78.706 109.402 78.2483 108.126L85.0625 99.6108V147.88ZM106.281 63.6875C106.281 67.031 103.562 69.75 100.219 69.75V57.625C103.562 57.625 106.281 60.344 106.281 63.6875ZM75.9688 6.09375C90.6339 6.09375 102.853 16.3121 105.663 30.3438H46.2746C49.0846 16.3121 61.3036 6.09375 75.9688 6.09375ZM39.5907 36.4062H112.344V42.4688H39.5938L39.5907 36.4062ZM45.6562 63.6875C45.6562 60.344 48.3753 57.625 51.7187 57.625V69.75C48.3753 69.75 45.6562 67.031 45.6562 63.6875ZM57.7812 69.75V48.5312H94.1562V69.75C94.1562 74.7637 90.0762 78.8438 85.0625 78.8438H66.875C61.8613 78.8438 57.7812 74.7637 57.7812 69.75ZM6.87747 82.0569C8.47191 79.5409 12.4368 77.2918 16.9837 76.3248C18.7145 75.958 20.3332 75.7973 21.8064 75.7973C26.0956 75.7973 29.1511 77.1553 30.1453 78.7073L30.4424 79.6288C30.5152 80.2503 30.3545 80.9353 29.8725 81.6962C28.2781 84.2121 24.3132 86.4613 19.7663 87.4283C13.5098 88.7529 8.78413 87.3737 7.02903 85.5216L6.43491 84.6304C6.39853 84.5395 6.32578 84.4546 6.30153 84.3637C6.14391 83.6847 6.33791 82.9117 6.87747 82.0569ZM15.0558 93.997C16.9655 93.997 18.9752 93.7908 21.0273 93.3543C25.8986 92.3207 30.1272 90.1715 32.9462 87.407L38.7147 105.319C37.3627 107.274 36.5625 109.635 36.5625 112.188V129.751L12.6035 93.8666C13.4007 93.9454 14.2161 93.997 15.0558 93.997ZM24.4375 142.5C24.4375 136.986 25.3317 131.621 27.0929 126.489L36.5625 140.672V144.585C35.2409 143.403 34.0041 142.118 32.925 140.681L28.075 144.319C34.3376 152.67 44.3104 157.656 54.75 157.656H63.8437V169.781H51.7187C36.6747 169.781 24.4375 157.541 24.4375 142.5ZM57.7812 181.906H48.6875C45.344 181.906 42.625 179.187 42.625 175.844V174.552C45.5198 175.374 48.5632 175.844 51.7187 175.844H72.9375C72.9375 179.187 70.2185 181.906 66.875 181.906H57.7812ZM134.172 151.594C127.473 151.594 121.45 147.871 118.452 141.879L115.375 135.722V124.312H109.312V181.906H91.125V175.286C94.6443 174.031 97.1875 170.697 97.1875 166.75V160.688C97.1875 156.741 94.6443 153.406 91.125 152.151V94.8002C107.563 99.2259 121.347 110.83 128.44 126.431L128.897 127.435L127.524 139.117L133.544 139.823L139.289 90.9688H151.75V134.019C151.75 143.709 143.863 151.594 134.172 151.594Z" fill="#41403A"/>
</svg>
