<svg width="194" height="194" viewBox="0 0 194 194" fill="none" xmlns="http://www.w3.org/2000/svg">
<path d="M85.069 113.467C85.2566 113.706 85.4377 113.952 85.6188 114.201C85.4377 113.952 85.2566 113.707 85.069 113.467Z" fill="#41403A"/>
<path d="M83.0771 111.168C83.2097 111.304 83.326 111.45 83.4552 111.589C83.3264 111.45 83.2097 111.304 83.0771 111.168Z" fill="#41403A"/>
<path d="M86.9219 116.193C87.0382 116.391 87.1678 116.581 87.2807 116.782C87.1674 116.581 87.0382 116.4 86.9219 116.193Z" fill="#41403A"/>
<path d="M88.5932 119.514C88.6803 119.731 88.7516 119.957 88.8357 120.161C88.7516 119.957 88.6807 119.73 88.5932 119.514Z" fill="#41403A"/>
<path d="M80.2289 108.701C80.4327 108.857 80.6461 109.005 80.8465 109.164C80.6457 109.002 80.4324 108.857 80.2289 108.701Z" fill="#41403A"/>
<path d="M77.545 106.92C77.8069 107.069 78.0623 107.243 78.3211 107.389C78.0623 107.23 77.8069 107.072 77.545 106.92Z" fill="#41403A"/>
<path d="M79.2653 150.673C81.1761 149.471 82.9676 148.093 84.6196 146.554C85.0755 146.124 85.4764 145.633 85.8064 145.099C87.5781 142.241 88.8877 139.121 89.6864 135.855C88.1117 141.888 84.4128 147.152 79.2653 150.673Z" fill="#41403A"/>
<path d="M67.8708 103.687C68.1781 103.722 68.4786 103.777 68.7795 103.826C68.4786 103.79 68.1781 103.722 67.8708 103.687Z" fill="#41403A"/>
<path d="M74.8162 105.536C74.9295 105.585 75.0329 105.646 75.1394 105.694C75.0329 105.646 74.9291 105.585 74.8162 105.536Z" fill="#41403A"/>
<path d="M89.5859 122.475C89.6701 122.779 89.7477 123.083 89.822 123.39C89.7477 123.083 89.6701 122.779 89.5859 122.475Z" fill="#41403A"/>
<path d="M64.5471 155.2C63.8131 155.2 63.0985 155.126 62.3809 155.061C63.0985 155.119 63.8131 155.2 64.5471 155.2Z" fill="#41403A"/>
<path d="M71.2109 154.333L70.8229 154.434L71.2109 154.333Z" fill="#41403A"/>
<path d="M90.2877 125.948C90.3136 126.139 90.3528 126.323 90.3753 126.514C90.3524 126.323 90.3136 126.139 90.2877 125.948Z" fill="#41403A"/>
<path d="M61.3139 154.98C60.2662 154.841 59.225 154.647 58.2 154.392C59.225 154.647 60.2662 154.841 61.3139 154.98Z" fill="#41403A"/>
<path d="M68.0099 154.961C67.861 154.98 67.7223 155.009 67.5734 155.026C67.7189 155.009 67.8644 154.98 68.0099 154.961Z" fill="#41403A"/>
<path d="M78.8447 150.958C78.3855 151.259 77.9134 151.54 77.4348 151.814C77.9232 151.556 78.376 151.249 78.8447 150.958Z" fill="#41403A"/>
<path d="M90.5141 129.718C90.5141 129.999 90.4847 130.274 90.4718 130.553C90.4847 130.274 90.511 129.98 90.5141 129.718Z" fill="#41403A"/>
<path d="M90.2431 133.016C90.1879 133.398 90.1392 133.782 90.0676 134.158C90.1361 133.776 90.1913 133.398 90.2431 133.016Z" fill="#41403A"/>
<path d="M71.0946 104.304C71.3727 104.375 71.6539 104.437 71.9289 104.518C71.6539 104.437 71.3727 104.375 71.0946 104.304Z" fill="#41403A"/>
<path d="M9.70001 142.267H13.2568C15.9372 142.267 18.333 143.929 19.2772 146.438C19.6459 147.408 20.0434 148.361 20.4704 149.299C21.5893 151.744 21.0752 154.624 19.1772 156.529L16.6518 159.08C14.1332 161.606 14.1332 165.693 16.6518 168.218L25.7891 177.355C28.3145 179.874 32.4014 179.874 34.9265 177.355L37.4647 174.827C39.3691 172.929 42.25 172.414 44.6947 173.533C45.6325 173.963 46.5862 174.361 47.5562 174.727C50.0653 175.667 51.7306 178.063 51.7336 180.744V184.301C51.7336 187.873 54.6273 190.768 58.2004 190.768H71.1336C74.7063 190.768 77.6004 187.874 77.6004 184.301V180.744C77.6004 178.064 79.2623 175.668 81.7714 174.724C82.7414 174.355 83.6951 173.957 84.6329 173.53C87.0772 172.411 89.958 172.926 91.8628 174.824L94.4011 177.352C96.9265 179.871 101.013 179.871 103.538 177.352L112.676 168.215C115.194 165.689 115.194 161.602 112.676 159.077L110.147 156.539C108.249 154.635 107.735 151.754 108.854 149.309C109.284 148.371 109.682 147.418 110.047 146.448C110.988 143.932 113.391 142.267 116.078 142.267H119.634C123.207 142.267 126.101 139.373 126.101 135.8V122.867C126.101 119.294 123.207 116.4 119.634 116.4H116.078C113.397 116.4 111.001 114.738 110.057 112.229C109.688 111.259 109.291 110.305 108.864 109.367C107.742 106.923 108.259 104.042 110.157 102.138L112.686 99.5993C115.204 97.0739 115.204 92.987 112.686 90.462L103.548 81.3246C101.022 78.8061 96.9352 78.8061 94.4102 81.3246L91.8719 83.8531C89.9675 85.751 87.0867 86.2652 84.642 85.1463C83.7042 84.7162 82.7505 84.3184 81.7805 83.9531C79.2649 83.0123 77.5996 80.61 77.5996 77.9228V74.366C77.5996 70.7933 74.7059 67.8992 71.1328 67.8992H58.2C54.6273 67.8992 51.7332 70.7929 51.7332 74.366V77.9228C51.7332 80.6032 50.0713 82.999 47.5622 83.9433C46.5922 84.3119 45.6385 84.7094 44.7007 85.1364C42.2564 86.2553 39.3756 85.7412 37.4708 83.8432L34.9196 81.3178C32.3942 78.7992 28.3073 78.7992 25.7823 81.3178L16.6579 90.4616C14.1393 92.987 14.1393 97.0739 16.6579 99.5989L19.1863 102.137C21.0842 104.042 21.6015 106.922 20.4795 109.367C20.0495 110.305 19.6516 111.259 19.2863 112.229C18.3421 114.741 15.9398 116.403 13.256 116.4H9.70001C6.1273 116.4 3.23322 119.293 3.23322 122.866V135.8C3.23322 139.373 6.1273 142.267 9.70001 142.267ZM58.2 104.275C60.3147 103.741 62.4873 103.47 64.6668 103.467C65.7372 103.473 66.8072 103.547 67.8712 103.687C68.1785 103.722 68.479 103.777 68.7798 103.826C69.5657 103.948 70.3352 104.11 71.0949 104.304C71.3731 104.375 71.6542 104.437 71.9293 104.517C72.9122 104.799 73.8757 105.138 74.8166 105.536C74.9299 105.584 75.0333 105.646 75.1398 105.694C75.9609 106.06 76.763 106.47 77.542 106.92C77.8039 107.072 78.0592 107.243 78.318 107.388C78.9648 107.799 79.6112 108.239 80.2258 108.701C80.4297 108.857 80.643 109.002 80.8435 109.164C81.6229 109.791 82.3697 110.46 83.0744 111.168C83.2071 111.304 83.3234 111.45 83.4526 111.589C84.0217 112.187 84.5617 112.814 85.0694 113.467C85.257 113.706 85.4381 113.952 85.6192 114.201C86.0815 114.848 86.518 115.494 86.9124 116.193C87.0287 116.391 87.1583 116.581 87.2712 116.782C87.7627 117.664 88.1992 118.579 88.5841 119.514C88.6713 119.731 88.7425 119.954 88.8266 120.161C89.1112 120.914 89.3635 121.68 89.5769 122.463C89.661 122.767 89.7387 123.071 89.8129 123.378C90.0103 124.222 90.1653 125.075 90.2786 125.936C90.3044 126.126 90.3434 126.311 90.3657 126.501C90.4726 127.442 90.5306 128.386 90.534 129.334C90.534 129.463 90.534 129.589 90.5147 129.718C90.5147 129.993 90.4855 130.274 90.4726 130.553C90.4339 131.383 90.3593 132.205 90.243 133.016C90.1911 133.398 90.1361 133.776 90.0683 134.157C89.9584 134.736 89.816 135.299 89.6705 135.865C88.8717 139.131 87.5622 142.25 85.7905 145.109C85.4608 145.642 85.0595 146.134 84.6037 146.564C82.9581 148.097 81.1701 149.474 79.2653 150.674L78.8451 150.948C78.3764 151.239 77.9073 151.547 77.4352 151.805C75.4789 152.914 73.387 153.758 71.2109 154.324L70.8229 154.424C69.895 154.65 68.9572 154.828 68.0099 154.951C67.8644 154.97 67.7189 155 67.5734 155.016C66.6098 155.132 65.6368 155.194 64.6668 155.2H64.5471C63.8131 155.2 63.0985 155.126 62.3809 155.061C62.0285 155.029 61.6632 155.032 61.3139 154.987C60.2662 154.848 59.225 154.647 58.2 154.392C44.3612 150.813 36.042 136.693 39.6211 122.854C41.9783 113.742 49.0919 106.632 58.2 104.275Z" fill="#FCE400"/>
<path d="M87.2806 116.781C87.7721 117.664 88.2086 118.579 88.5935 119.514C88.2086 118.579 87.7721 117.664 87.2806 116.781Z" fill="#41403A"/>
<path d="M88.8357 120.173C89.1203 120.926 89.3726 121.693 89.5859 122.475C89.3726 121.693 89.1203 120.927 88.8357 120.173Z" fill="#41403A"/>
<path d="M90.534 129.333C90.5306 128.392 90.4788 127.451 90.3748 126.514C90.4887 127.577 90.534 128.648 90.5146 129.718C90.534 129.589 90.534 129.463 90.534 129.333Z" fill="#41403A"/>
<path d="M89.822 123.39C90.0194 124.234 90.1744 125.088 90.2877 125.948C90.1744 125.088 90.0194 124.234 89.822 123.39Z" fill="#41403A"/>
<path d="M68.7794 103.826C69.5653 103.948 70.3348 104.11 71.0945 104.304C70.3348 104.113 69.5653 103.948 68.7794 103.826Z" fill="#41403A"/>
<path d="M64.6668 103.467C65.7372 103.473 66.8072 103.548 67.8712 103.687C66.8072 103.548 65.7368 103.473 64.6668 103.467Z" fill="#41403A"/>
<path d="M75.1428 105.694C75.9639 106.06 76.7661 106.467 77.5451 106.92C76.7657 106.47 75.9639 106.06 75.1428 105.694Z" fill="#41403A"/>
<path d="M71.9289 104.517C72.9118 104.799 73.8753 105.138 74.8162 105.536C73.8753 105.138 72.9118 104.799 71.9289 104.517Z" fill="#41403A"/>
<path d="M85.6188 114.201C86.081 114.848 86.5175 115.495 86.912 116.193C86.5175 115.508 86.081 114.842 85.6188 114.201Z" fill="#41403A"/>
<path d="M83.4556 111.589C84.0213 112.187 84.5613 112.814 85.0724 113.467C84.5647 112.814 84.0247 112.187 83.4556 111.589Z" fill="#41403A"/>
<path d="M78.321 107.389C78.9678 107.8 79.6143 108.239 80.2288 108.702C79.6112 108.239 78.9773 107.799 78.321 107.389Z" fill="#41403A"/>
<path d="M80.8332 109.164C81.6156 109.788 82.3594 110.457 83.0642 111.168C82.3594 110.46 81.6126 109.791 80.8332 109.164Z" fill="#41403A"/>
<path d="M77.4352 151.815C75.4694 152.905 73.3805 153.748 71.2109 154.333C73.3869 153.768 75.4789 152.924 77.4352 151.815Z" fill="#41403A"/>
<path d="M70.81 154.434C69.8821 154.66 68.9443 154.838 67.997 154.961C68.9443 154.838 69.8821 154.66 70.81 154.434Z" fill="#41403A"/>
<path d="M64.6668 155.2C65.6402 155.197 66.6102 155.139 67.5768 155.025C66.5712 155.142 65.5625 155.197 64.5505 155.194L64.6668 155.2Z" fill="#41403A"/>
<path d="M62.3808 155.054C62.0285 155.022 61.6632 155.025 61.3138 154.98C61.6628 155.025 62.0281 155.022 62.3808 155.054Z" fill="#41403A"/>
<path d="M90.4718 130.552C90.4362 131.367 90.3555 132.188 90.2422 133.016C90.3589 132.205 90.4332 131.383 90.4718 130.552Z" fill="#41403A"/>
<path d="M79.2653 150.673C79.1262 150.764 78.9872 150.861 78.8451 150.948L79.2653 150.673Z" fill="#41403A"/>
<path d="M90.0679 134.157C89.9644 134.723 89.8091 135.296 89.67 135.865C89.8155 135.299 89.9576 134.736 90.0679 134.157Z" fill="#41403A"/>
<path d="M119.633 113.167H116.076C114.738 113.17 113.542 112.336 113.082 111.078C112.688 110.043 112.264 109.031 111.808 108.029C111.243 106.81 111.501 105.368 112.455 104.421L114.99 101.882C118.754 98.0863 118.747 91.9625 114.974 88.176L105.836 79.0387C102.044 75.2686 95.9197 75.2686 92.1273 79.0387L89.5924 81.5706C88.6451 82.5213 87.203 82.7797 85.9841 82.2174C84.9818 81.7615 83.9698 81.3379 82.932 80.9242C81.6676 80.4683 80.8302 79.2653 80.8336 77.9236V74.3668C80.8336 69.0091 76.4913 64.6668 71.1336 64.6668H58.2C52.8423 64.6668 48.5 69.0091 48.5 74.3668V77.9236C48.5034 79.2623 47.6691 80.4585 46.4111 80.9177C45.3763 81.3122 44.3642 81.7358 43.362 82.1916C42.1431 82.7543 40.701 82.4955 39.7537 81.5448L37.2154 79.0099C33.4226 75.2432 27.3021 75.2432 23.5092 79.0099L14.3719 88.1764C10.6018 91.9693 10.6018 98.0932 14.3719 101.886L16.9038 104.421C17.8575 105.368 18.1163 106.81 17.5506 108.029C17.0947 109.031 16.6711 110.043 16.2733 111.081C15.811 112.345 14.6015 113.179 13.2564 113.166H9.7C4.34227 113.166 0 117.509 0 122.866V135.8C0 141.158 4.34227 145.5 9.7 145.5H13.2568C14.5955 145.497 15.7917 146.331 16.2509 147.589C16.6454 148.624 17.069 149.636 17.5248 150.638C18.0905 151.857 17.8321 153.299 16.878 154.246L14.3431 156.785C10.5764 160.577 10.5764 166.698 14.3431 170.491L23.4804 179.628C27.2733 183.398 33.3972 183.398 37.1896 179.628L39.7245 177.096C40.6718 176.146 42.1139 175.887 43.3329 176.449C44.3351 176.905 45.3471 177.329 46.3849 177.743C47.6558 178.192 48.5027 179.395 48.4996 180.743V184.3C48.4996 189.658 52.8419 194 58.1996 194H71.1328C76.4906 194 80.8328 189.658 80.8328 184.3V180.743C80.8294 179.405 81.6638 178.208 82.9217 177.749C83.9565 177.355 84.9686 176.931 85.9708 176.475C87.1897 175.913 88.6319 176.171 89.5791 177.122L92.1174 179.657C95.9133 183.417 102.034 183.411 105.824 179.641L114.961 170.503C118.731 166.71 118.731 160.587 114.961 156.794L112.429 154.259C111.475 153.312 111.217 151.87 111.782 150.651C112.238 149.649 112.662 148.637 113.075 147.599C113.531 146.334 114.734 145.497 116.076 145.5H119.633C124.991 145.5 129.333 141.158 129.333 135.8V122.867C129.333 117.509 124.991 113.167 119.633 113.167ZM122.867 135.8C122.867 137.585 121.418 139.033 119.634 139.033H116.077C112.058 139.05 108.459 141.532 107.024 145.286C106.681 146.192 106.309 147.084 105.911 147.96C104.25 151.63 105.019 155.943 107.852 158.811L110.38 161.343C111.644 162.604 111.644 164.651 110.383 165.915L110.38 165.919L101.243 175.056C99.9816 176.317 97.9348 176.317 96.6707 175.056L94.1358 172.524C91.2709 169.692 86.9544 168.919 83.2847 170.584C82.4083 170.982 81.516 171.354 80.6172 171.696C76.8664 173.132 74.3835 176.727 74.3672 180.743V184.3C74.3672 186.084 72.9186 187.533 71.134 187.533H58.2C56.4154 187.533 54.9668 186.084 54.9668 184.3V180.743C54.9505 176.724 52.4675 173.125 48.7137 171.69C47.8085 171.347 46.9158 170.975 46.0398 170.578C42.3701 168.916 38.0566 169.688 35.1886 172.518L32.6568 175.046C31.3958 176.31 29.3489 176.31 28.0849 175.049L28.0815 175.046L18.9442 165.918C17.6832 164.657 17.6832 162.607 18.9442 161.346L21.476 158.811C24.3084 155.943 25.0779 151.63 23.416 147.96C23.0182 147.084 22.6465 146.192 22.3039 145.293C20.8717 141.539 17.2762 139.049 13.2572 139.033H9.7C7.91535 139.033 6.46679 137.584 6.46679 135.8V122.866C6.46679 121.082 7.91535 119.633 9.7 119.633H13.2568C17.2759 119.617 20.8747 117.134 22.31 113.38C22.6529 112.475 23.0246 111.582 23.4221 110.706C25.084 107.036 24.3144 102.723 21.4821 99.8551L18.9408 97.3232C17.6764 96.0622 17.6764 94.0154 18.9374 92.7513L18.9408 92.7479L28.0781 83.6106C29.3425 82.3496 31.3859 82.3496 32.65 83.6106L35.1849 86.1425C38.0498 88.9748 42.3663 89.7477 46.036 88.0825C46.9124 87.6846 47.8047 87.3129 48.7035 86.9704C52.4607 85.5381 54.9471 81.9427 54.9664 77.9236V74.3668C54.9664 72.5822 56.415 71.1336 58.1996 71.1336H71.1328C72.9175 71.1336 74.366 72.5822 74.366 74.3668V77.9236C74.3823 81.9427 76.8653 85.5415 80.6191 86.9768C81.5243 87.3197 82.417 87.6914 83.2931 88.0889C86.9628 89.7542 91.2793 88.9812 94.1442 86.1489L96.676 83.6205C97.9435 82.3659 99.9839 82.3659 101.251 83.6205L110.389 92.7578C111.65 94.0188 111.65 96.0687 110.389 97.3297L107.857 99.8645C105.024 102.732 104.255 107.046 105.917 110.716C106.315 111.592 106.686 112.484 107.029 113.383C108.465 117.134 112.06 119.617 116.076 119.633H119.632C121.417 119.633 122.866 121.082 122.866 122.866V135.8H122.867Z" fill="#41403A"/>
<path d="M93.702 128.04C93.6698 127.264 93.6148 126.491 93.5209 125.722C93.4174 124.894 93.2947 124.073 93.123 123.268C93.0097 122.741 92.8612 122.22 92.7187 121.696C92.5376 121.03 92.3341 120.374 92.1075 119.727C91.9492 119.278 91.7843 118.831 91.6161 118.389C91.1989 117.354 90.7238 116.342 90.1903 115.362C90.1482 115.288 90.1225 115.207 90.0804 115.133C89.2396 113.636 88.2666 112.216 87.1704 110.894C87.0768 110.777 86.97 110.668 86.873 110.554C86.4266 110.027 85.9678 109.516 85.4858 109.028C85.2334 108.766 84.9686 108.52 84.7033 108.268C84.3801 107.968 84.0566 107.67 83.7333 107.386C83.3419 107.046 82.9411 106.716 82.5337 106.396L82.0036 106.002C77.0017 102.254 70.9165 100.23 64.6664 100.234C64.3432 100.234 64.0196 100.282 63.6964 100.295C63.0076 100.314 62.3157 100.353 61.6208 100.424C61.2555 100.463 60.8868 100.505 60.5215 100.557C59.4674 100.696 58.4232 100.89 57.3884 101.142C41.8199 105.164 32.4594 121.047 36.4815 136.618C39.1327 146.878 47.148 154.887 57.4107 157.528C57.4626 157.528 57.5176 157.545 57.5725 157.558C58.688 157.836 59.8198 158.052 60.9611 158.204C61.7143 158.298 62.468 158.318 63.2243 158.353C63.7286 158.379 64.1943 158.454 64.7213 158.454C65.6428 158.454 66.6 158.392 67.5764 158.295C67.6798 158.295 67.7833 158.266 67.8996 158.253C68.6855 158.166 69.4808 158.049 70.2924 157.888C70.6156 157.827 70.9165 157.746 71.2268 157.675C71.7959 157.542 72.3616 157.403 72.9436 157.232C73.3964 157.096 73.8359 156.937 74.2789 156.782C74.7218 156.627 75.1811 156.459 75.6403 156.284C76.0995 156.11 76.4841 155.909 76.9013 155.715C77.4446 155.466 77.9846 155.221 78.5181 154.93H78.5374C81.5543 153.313 84.3411 151.302 86.8245 148.945C87.4936 148.318 88.079 147.606 88.5576 146.824C91.083 142.779 92.7384 138.252 93.4269 133.535C93.5175 132.911 93.5982 132.286 93.6467 131.65C93.6918 131.064 93.7243 130.482 93.7372 129.9C93.7372 129.716 93.763 129.541 93.763 129.357C93.7668 128.9 93.7213 128.48 93.702 128.04ZM58.9858 107.411C60.8417 106.943 62.7526 106.703 64.6668 106.7C65.5917 106.707 66.5132 106.768 67.4313 106.888C67.6772 106.917 67.9197 106.962 68.1622 106.998C68.8605 107.107 69.5524 107.246 70.2348 107.421C70.458 107.479 70.6812 107.531 70.9009 107.592C72.6212 108.087 74.2766 108.786 75.8316 109.668C76.0806 109.814 76.3231 109.965 76.569 110.117C77.0798 110.441 77.5746 110.764 78.0626 111.133C78.3245 111.323 78.5897 111.511 78.842 111.715C79.476 112.222 80.0837 112.762 80.6623 113.331C80.8919 113.564 81.1022 113.82 81.325 114.062C81.6967 114.467 82.059 114.88 82.4049 115.317C82.644 115.618 82.8736 115.928 83.1002 116.242C83.4234 116.707 83.747 117.192 84.038 117.684C84.1998 117.952 84.3612 118.214 84.5264 118.489C84.9436 119.255 85.3153 120.047 85.6385 120.859C85.7677 121.182 85.8776 121.506 85.9943 121.829C86.2046 122.424 86.3857 123.025 86.5441 123.633C86.6248 123.957 86.7153 124.245 86.7832 124.558C86.9707 125.431 87.1098 126.317 87.1939 127.206C87.2132 127.443 87.2132 127.682 87.2295 127.918C87.2746 128.661 87.2879 129.408 87.2587 130.159C87.2587 130.427 87.236 130.695 87.22 130.96C87.1617 131.743 87.0617 132.525 86.929 133.311C85.72 140.033 81.5455 145.853 75.5672 149.154C75.1663 149.365 74.7718 149.562 74.3774 149.743L74.1091 149.872C72.2305 150.726 70.2485 151.323 68.2114 151.657C68.0694 151.679 67.9239 151.705 67.7784 151.724C67.3741 151.783 66.9766 151.831 66.5822 151.866C66.0615 151.912 65.5379 151.938 65.0044 151.947C64.7782 151.947 64.555 151.947 64.3288 151.947C63.5626 151.937 62.7995 151.892 62.0394 151.805L61.6514 151.76C60.7622 151.644 59.8797 151.479 59.0097 151.262C46.901 148.161 39.5968 135.833 42.6944 123.724C44.7412 115.721 50.9879 109.471 58.987 107.415L58.9858 107.411Z" fill="#41403A"/>
<path d="M184.3 67.9H174.131C172.777 67.9129 171.561 67.0592 171.118 65.7789C170.116 62.7753 168.903 59.8456 167.487 57.0133C166.885 55.7909 167.137 54.32 168.107 53.3629L175.318 46.1428C179.101 42.3564 179.101 36.2166 175.318 32.4302L161.569 18.7047C157.783 14.9217 151.643 14.9217 147.857 18.7047L140.65 25.9089C139.696 26.8789 138.225 27.1312 137.003 26.5329C134.17 25.1101 131.241 23.8912 128.234 22.8825C126.947 22.4426 126.087 21.2271 126.1 19.8691V9.7C126.1 4.34227 121.758 0 116.4 0H97C91.6423 0 87.3 4.34227 87.3 9.7V19.8687C87.3129 21.2233 86.4592 22.4392 85.1789 22.8821C82.1753 23.8908 79.2456 25.1097 76.4133 26.5295C75.1909 27.1308 73.7166 26.8819 72.7629 25.9089L65.5428 18.6986C61.75 14.9255 55.6231 14.9255 51.8302 18.6986L38.1081 32.4207C34.3217 36.2071 34.3217 42.3504 38.1081 46.1364L48.7103 56.7579C49.994 57.9996 52.0405 57.967 53.2822 56.6866C54.4947 55.4355 54.4981 53.45 53.2886 52.1924L42.68 41.5744C41.419 40.3099 41.419 38.2665 42.68 37.0025L56.4021 23.2804C57.6631 22.0194 59.713 22.0194 60.974 23.2804L68.1971 30.4906C71.1199 33.4298 75.5982 34.1667 79.307 32.3143C81.8676 31.0305 84.5158 29.9313 87.2318 29.0197C91.1504 27.6939 93.7827 24.0079 93.7664 19.8695V9.7C93.7664 7.91535 95.215 6.46679 96.9996 6.46679H116.4C118.184 6.46679 119.633 7.91535 119.633 9.7V19.8687C119.617 24.0075 122.248 27.6901 126.167 29.0159C128.883 29.9275 131.535 31.0301 134.096 32.3139C137.804 34.1569 142.276 33.4195 145.202 30.4872L152.425 23.28C153.686 22.019 155.736 22.019 156.997 23.28L170.719 37.0055C171.98 38.2665 171.98 40.3134 170.719 41.5744L163.509 48.7974C160.573 51.7203 159.836 56.1986 161.685 59.9074C162.969 62.468 164.068 65.1162 164.98 67.8322C166.306 71.7508 169.992 74.3861 174.13 74.3668H184.3C186.085 74.3668 187.533 75.8154 187.533 77.6V97C187.533 98.7846 186.085 100.233 184.3 100.233H174.131C169.992 100.217 166.31 102.849 164.984 106.768C164.072 109.484 162.97 112.135 161.686 114.696C159.84 118.405 160.577 122.88 163.513 125.803L170.723 133.026C171.984 134.287 171.984 136.337 170.723 137.598L156.994 151.32C155.733 152.581 153.686 152.581 152.425 151.32L141.8 140.717C140.559 139.434 138.512 139.402 137.228 140.643C135.945 141.885 135.913 143.931 137.154 145.215C137.18 145.241 137.206 145.267 137.235 145.293L147.856 155.895C151.643 159.678 157.783 159.678 161.569 155.895L175.291 142.176C179.078 138.386 179.078 132.25 175.291 128.46L168.091 121.25C167.121 120.296 166.869 118.825 167.467 117.603C168.89 114.77 170.109 111.841 171.117 108.834C171.557 107.547 172.773 106.687 174.131 106.7H184.3C189.658 106.7 194 102.358 194 97V77.6C194 72.2423 189.658 67.9 184.3 67.9Z" fill="#41403A"/>
<path d="M136.421 57.5794C119.995 41.1898 93.4046 41.1898 76.979 57.5794C75.7373 58.8631 75.7729 60.9096 77.0597 62.1512C78.3143 63.3603 80.2994 63.3603 81.5509 62.1512C95.3476 48.1704 117.868 48.0184 131.849 61.8152C145.83 75.6119 145.982 98.1318 132.185 112.113C132.072 112.226 131.962 112.339 131.849 112.449C130.565 113.691 130.529 115.737 131.771 117.021C133.013 118.305 135.059 118.34 136.343 117.099C136.369 117.073 136.395 117.047 136.421 117.021C152.811 100.595 152.811 74.0046 136.421 57.5794Z" fill="#41403A"/>
</svg>
