<svg width="188" height="161" viewBox="0 0 188 161" fill="none" xmlns="http://www.w3.org/2000/svg">
<path d="M145.531 142.781C138.844 142.781 133.406 137.343 133.406 130.656C133.406 123.969 138.844 118.531 145.531 118.531C152.218 118.531 157.656 123.969 157.656 130.656C157.656 137.343 152.218 142.781 145.531 142.781Z" fill="#FCE400"/>
<path d="M48.5312 142.781C41.8443 142.781 36.4062 137.343 36.4062 130.656C36.4062 123.969 41.8443 118.531 48.5312 118.531C55.2182 118.531 60.6562 123.969 60.6562 130.656C60.6562 137.343 55.2182 142.781 48.5312 142.781Z" fill="#FCE400"/>
<path d="M160.688 76.0938V54.875H172.812V36.6875H160.688C150.657 36.6875 142.5 44.8446 142.5 54.875V76.0938H160.688Z" fill="#FCE400"/>
<path d="M175.689 133.688H181.906C185.25 133.688 187.969 130.968 187.969 127.625C187.969 119.941 185.726 112.787 181.906 106.721V94.2812C181.906 82.5837 172.388 73.0625 160.688 73.0625H141.754L131.002 35.4265C132.454 34.3171 133.406 32.5892 133.406 30.625V24.5625C133.406 21.219 130.687 18.5 127.344 18.5H72.7812C69.4378 18.5 66.7188 21.219 66.7188 24.5625V30.625C66.7188 32.5892 67.6706 34.3171 69.1225 35.4265L61.3625 62.5835L47.4582 52.8501C51.5443 51.5558 55.0909 48.9823 57.4825 45.3932C59.5589 42.2802 60.6562 38.6548 60.6562 34.9173V12.4375C60.6562 9.09403 57.9372 6.375 54.5938 6.375H17.0608L14.0296 0.3125H6.09375C2.75028 0.3125 0.03125 3.03153 0.03125 6.375V34.9173C0.03125 38.6548 1.12856 42.2802 3.20194 45.3932C5.81184 49.3096 9.76762 52.0984 14.3327 53.2381L18.2188 54.2081V60.0554C18.2188 61.2073 18.5461 62.3288 19.1675 63.311L39.4375 95.1664V101.744C27.1518 105.615 18.2188 117.11 18.2188 130.656C18.2188 140.578 23.0324 149.374 30.4226 154.906H0.03125V160.969H90.9688V154.906H66.6399C73.2663 149.944 77.8222 142.36 78.6892 133.688H115.37C116.234 142.36 120.79 149.944 127.42 154.906H115.219V160.969H187.969V154.906H163.64C170.269 149.944 174.825 142.36 175.689 133.688ZM142.5 79.125H160.688C169.045 79.125 175.844 85.9241 175.844 94.2812V99.2555C168.757 92.4382 159.151 88.2188 148.562 88.2188H142.5V79.125ZM105.022 115.5H100.062V109.438H107.577C106.565 111.371 105.704 113.396 105.022 115.5ZM91.8569 75.2056L96.1431 70.9194L87.0493 61.8257L82.7632 66.1118L85.1669 68.5156L80.6201 73.0625H76.8007L87.1948 36.6875H112.936L125.061 79.125H89.1924L86.1612 76.0938L89.4531 72.8018L91.8569 75.2056ZM80.8868 36.6875L70.4927 73.0625H64.6727L75.0668 36.6875H80.8868ZM125.058 36.6875L136.438 76.5151V79.125H131.36L119.235 36.6875H125.058ZM111.502 103.375H100.062V97.3125H112.188V102.481C111.948 102.769 111.736 103.081 111.502 103.375ZM112.188 85.1875V91.25H100.062V85.1875H112.188ZM118.25 85.1875H136.438V88.7341C129.648 89.7889 123.433 92.5656 118.25 96.6274V85.1875ZM72.7812 24.5625H127.344L127.347 30.625H72.7812V24.5625ZM10.2829 6.375L13.3142 12.4375H54.5938V18.5H13.3142L10.2829 24.5625H6.09375V6.375H10.2829ZM19.9951 42.75C18.8644 43.8776 18.2188 45.4417 18.2188 47.0362V47.9607L15.8059 47.3575C12.7049 46.5815 10.0192 44.69 8.24594 42.0286C6.83944 39.9158 6.09375 37.4574 6.09375 34.9173V30.625H14.0296L17.0608 24.5625H54.5938V34.9173C54.5938 37.4574 53.8481 39.9158 52.4416 42.0316C50.6683 44.693 47.9856 46.5845 44.8816 47.3605L41.0016 48.3305L38.9646 46.9058L37.4672 42.4166C36.3244 38.9882 33.1325 36.6875 29.5253 36.6875C27.2882 36.6875 25.1846 37.5605 23.6053 39.1428L19.9951 42.75ZM24.2812 47.0362L27.8915 43.429C29.0312 42.2862 31.2077 42.8046 31.7169 44.3323L33.8479 50.7222L59.6044 68.7521L58.1646 73.793C56.0669 74.4629 54.1512 75.5693 52.5446 77.0486L43.8571 64.9297C42.0626 62.4289 39.1586 60.9375 36.0819 60.9375C33.5266 60.9375 31.1258 61.9317 29.3192 63.7414L27.6732 65.3843L24.2812 60.0554V47.0362ZM42.6718 88.9523L39.2587 83.59L45.3848 77.4669L48.8647 82.3199C48.8253 82.4139 48.7707 82.4988 48.7313 82.5928L46.4791 88.2188H45.5C44.4724 88.2188 43.5206 88.5007 42.6718 88.9523ZM35.9243 78.352L31.0076 70.6254L33.6054 68.0306C35.0543 66.5817 37.7339 66.803 38.9313 68.4671L41.8049 72.4775L35.9243 78.352ZM67.6645 145.503L63.5359 141.372L59.2497 145.658L63.3783 149.786C60.0258 152.393 55.9821 154.139 51.5625 154.694V148.844H45.5V154.697C41.0804 154.142 37.0368 152.396 33.6842 149.79L37.8127 145.661L33.5266 141.375L29.398 145.506C26.7911 142.154 25.0451 138.11 24.4904 133.691H30.3438V127.628H24.4904C25.0451 123.208 26.7911 119.165 29.398 115.812L33.5266 119.944L37.8127 115.658L33.6842 111.529C37.0368 108.922 41.0804 107.176 45.5 106.621V112.469H51.5625V106.615C55.9821 107.17 60.0258 108.916 63.3783 111.523L59.2497 115.652L63.5359 119.938L67.6645 115.806C70.2714 119.159 72.0174 123.202 72.5721 127.622H66.7188V133.684H72.5721C72.0174 138.107 70.2714 142.151 67.6645 145.503ZM78.6892 127.625C77.1644 112.329 64.221 100.344 48.5312 100.344C47.5067 100.344 46.4973 100.398 45.5 100.498V94.2812H51.5625C69.947 94.2812 84.9062 109.24 84.9093 127.625H78.6892ZM52.9811 88.2915L54.3603 84.8419C55.7487 81.3681 59.0618 79.125 62.8024 79.125H80.6201L86.6826 85.1875H94V127.625H90.9688C90.9688 106.376 74.0513 89.0463 52.9811 88.2915ZM100.062 127.625V121.562H103.609C103.303 123.545 103.094 125.558 103.094 127.625H100.062ZM142.5 94.2812H148.562C166.947 94.2812 181.906 109.24 181.906 127.625H175.689C174.164 112.329 161.221 100.344 145.531 100.344C129.842 100.344 116.898 112.329 115.373 127.625H109.156C109.156 109.24 124.115 94.2812 142.5 94.2812ZM121.49 127.625C122.045 123.205 123.791 119.162 126.398 115.809L130.527 119.941L134.813 115.655L130.684 111.526C134.037 108.919 138.08 107.173 142.5 106.618V112.469H148.562V106.615C152.982 107.17 157.026 108.916 160.378 111.523L156.25 115.652L160.536 119.938L164.665 115.806C167.271 119.159 169.017 123.202 169.572 127.622H163.719V133.684H169.572C169.017 138.104 167.271 142.148 164.665 145.5L160.536 141.369L156.25 145.655L160.378 149.783C157.026 152.39 152.982 154.136 148.562 154.691V148.844H142.5V154.697C138.08 154.142 134.037 152.396 130.684 149.79L134.813 145.661L130.527 141.375L126.398 145.506C123.791 142.154 122.045 138.11 121.49 133.691H127.344V127.628H121.49V127.625Z" fill="#41403A"/>
<path d="M97.0312 154.906H109.156V160.969H97.0312V154.906Z" fill="#41403A"/>
</svg>
